<svg width="640" height="480" viewBox="0 0 640 480" fill="none" xmlns="http://www.w3.org/2000/svg">
  <defs>
    <linearGradient id="bg" x1="0" y1="0" x2="1" y2="1">
      <stop offset="0%" stop-color="#E1F7FF"/>
      <stop offset="100%" stop-color="#E8FFEE"/>
    </linearGradient>
    <linearGradient id="bars" x1="0" y1="1" x2="1" y2="0">
      <stop offset="0%" stop-color="#10B981"/>
      <stop offset="100%" stop-color="#0EA5E9"/>
    </linearGradient>
  </defs>
  <rect width="640" height="480" rx="28" fill="url(#bg)"/>
  <circle cx="120" cy="102" r="44" fill="#9EE7F5" opacity="0.55"/>
  <circle cx="542" cy="90" r="40" fill="#BBF7D0" opacity="0.6"/>
  <rect x="92" y="122" width="456" height="244" rx="24" fill="white" opacity="0.92"/>
  <rect x="130" y="162" width="202" height="168" rx="18" fill="#F0FDFA"/>
  <rect x="154" y="266" width="26" height="42" rx="8" fill="url(#bars)"/>
  <rect x="192" y="236" width="26" height="72" rx="8" fill="url(#bars)"/>
  <rect x="230" y="206" width="26" height="102" rx="8" fill="url(#bars)"/>
  <rect x="268" y="178" width="26" height="130" rx="8" fill="url(#bars)"/>
  <rect x="356" y="166" width="156" height="20" rx="10" fill="#BAE6FD"/>
  <rect x="356" y="198" width="116" height="12" rx="6" fill="#E0F2FE"/>
  <rect x="356" y="220" width="136" height="12" rx="6" fill="#E0F2FE"/>
  <rect x="356" y="254" width="160" height="56" rx="12" fill="#ECFEFF"/>
  <circle cx="402" cy="282" r="13" fill="#34D399"/>
  <rect x="426" y="276" width="62" height="12" rx="6" fill="#99F6E4"/>
</svg>
