<svg width="1600" height="900" viewBox="0 0 1600 900" fill="none" xmlns="http://www.w3.org/2000/svg">
  <defs>
    <linearGradient id="bg" x1="0" y1="0" x2="1" y2="1">
      <stop offset="0%" stop-color="#DBF3FF"/>
      <stop offset="48%" stop-color="#EFFFF6"/>
      <stop offset="100%" stop-color="#FFEAF1"/>
    </linearGradient>
    <linearGradient id="pill" x1="0" y1="0" x2="1" y2="1">
      <stop offset="0%" stop-color="#0EA5E9"/>
      <stop offset="100%" stop-color="#14B8A6"/>
    </linearGradient>
  </defs>
  <rect width="1600" height="900" fill="url(#bg)"/>
  <circle cx="180" cy="180" r="140" fill="#A5F3FC" opacity="0.45"/>
  <circle cx="1460" cy="130" r="120" fill="#FBCFE8" opacity="0.38"/>
  <circle cx="1460" cy="760" r="170" fill="#BBF7D0" opacity="0.35"/>
  <circle cx="260" cy="760" r="110" fill="#BFDBFE" opacity="0.42"/>
  <rect x="420" y="180" width="760" height="520" rx="38" fill="white" opacity="0.42"/>
  <rect x="470" y="250" width="256" height="332" rx="28" fill="url(#pill)" opacity="0.95"/>
  <rect x="760" y="260" width="350" height="28" rx="14" fill="#BFDBFE"/>
  <rect x="760" y="308" width="280" height="18" rx="9" fill="#DBEAFE"/>
  <rect x="760" y="340" width="320" height="18" rx="9" fill="#DBEAFE"/>
  <rect x="760" y="390" width="180" height="64" rx="16" fill="#ECFEFF"/>
  <rect x="968" y="390" width="142" height="64" rx="16" fill="#E0F2FE"/>
  <rect x="760" y="486" width="350" height="92" rx="18" fill="#F8FAFC"/>
  <circle cx="598" cy="422" r="64" fill="#F0FDFF"/>
  <path d="M598 390V454M566 422H630" stroke="white" stroke-width="16" stroke-linecap="round"/>
</svg>
