<svg width="640" height="480" viewBox="0 0 640 480" fill="none" xmlns="http://www.w3.org/2000/svg">
  <defs>
    <linearGradient id="bg" x1="0" y1="0" x2="1" y2="1">
      <stop offset="0%" stop-color="#D7F6FF"/>
      <stop offset="100%" stop-color="#FFE2EC"/>
    </linearGradient>
    <linearGradient id="card" x1="0" y1="0" x2="1" y2="1">
      <stop offset="0%" stop-color="#0EA5A4"/>
      <stop offset="100%" stop-color="#22C55E"/>
    </linearGradient>
  </defs>
  <rect width="640" height="480" rx="28" fill="url(#bg)"/>
  <circle cx="109" cy="90" r="52" fill="#93E8F6" opacity="0.65"/>
  <circle cx="560" cy="72" r="36" fill="#FDB6CD" opacity="0.6"/>
  <rect x="96" y="124" width="448" height="248" rx="24" fill="white" opacity="0.92"/>
  <rect x="126" y="162" width="168" height="174" rx="18" fill="url(#card)"/>
  <rect x="318" y="164" width="192" height="22" rx="11" fill="#C6ECF7"/>
  <rect x="318" y="200" width="142" height="14" rx="7" fill="#D7E6F8"/>
  <rect x="318" y="226" width="178" height="14" rx="7" fill="#D7E6F8"/>
  <rect x="318" y="264" width="104" height="38" rx="11" fill="#0EA5E9"/>
  <rect x="216" y="287" width="64" height="80" rx="12" fill="#0F766E" opacity="0.55"/>
  <circle cx="210" cy="216" r="42" fill="#F0FCFF"/>
  <path d="M210 197L215 210H229L217 219L222 232L210 223L198 232L203 219L191 210H205L210 197Z" fill="#0EA5E9"/>
</svg>
