<svg width="640" height="480" viewBox="0 0 640 480" fill="none" xmlns="http://www.w3.org/2000/svg">
  <defs>
    <linearGradient id="bg" x1="0" y1="0" x2="1" y2="1">
      <stop offset="0%" stop-color="#E4F1FF"/>
      <stop offset="100%" stop-color="#DBFFF2"/>
    </linearGradient>
    <linearGradient id="panel" x1="0" y1="0" x2="1" y2="1">
      <stop offset="0%" stop-color="#0EA5E9"/>
      <stop offset="100%" stop-color="#2563EB"/>
    </linearGradient>
  </defs>
  <rect width="640" height="480" rx="28" fill="url(#bg)"/>
  <circle cx="530" cy="95" r="48" fill="#9EDDFB" opacity="0.55"/>
  <rect x="90" y="112" width="460" height="256" rx="28" fill="white" opacity="0.9"/>
  <rect x="124" y="148" width="228" height="182" rx="20" fill="url(#panel)"/>
  <rect x="378" y="154" width="140" height="18" rx="9" fill="#C5E1FF"/>
  <rect x="378" y="184" width="106" height="12" rx="6" fill="#D9EAFF"/>
  <rect x="378" y="208" width="122" height="12" rx="6" fill="#D9EAFF"/>
  <rect x="378" y="236" width="152" height="78" rx="14" fill="#EFF6FF"/>
  <rect x="398" y="258" width="64" height="12" rx="6" fill="#BFDBFE"/>
  <rect x="398" y="280" width="102" height="12" rx="6" fill="#DBEAFE"/>
  <circle cx="238" cy="235" r="38" fill="#F0F9FF"/>
  <path d="M238 214V256M217 235H259" stroke="#0EA5E9" stroke-width="10" stroke-linecap="round"/>
</svg>
